<svg width="37" height="46" viewBox="0 0 37 46" fill="none" xmlns="http://www.w3.org/2000/svg">
<path fill-rule="evenodd" clip-rule="evenodd" d="M19 27C25.6274 27 31 21.6274 31 15C31 8.37258 25.6274 3 19 3C12.3726 3 7 8.37258 7 15C7 21.6274 12.3726 27 19 27V27ZM19 0C22.9782 0 26.7936 1.58035 29.6066 4.3934C32.4196 7.20644 34 11.0218 34 15C34 23.2843 27.2843 30 19 30C10.705 30 4 23.25 4 15C4 6.71573 10.7157 0 19 0V0ZM19.75 7.5V15.375L26.5 19.38L25.375 21.225L17.5 16.5V7.5H19.75Z" fill="#27A8A1"/>
<mask id="mask0_16040_404" style="mask-type:luminance" maskUnits="userSpaceOnUse" x="4" y="0" width="30" height="30">
<path fill-rule="evenodd" clip-rule="evenodd" d="M19 27C25.6274 27 31 21.6274 31 15C31 8.37258 25.6274 3 19 3C12.3726 3 7 8.37258 7 15C7 21.6274 12.3726 27 19 27V27ZM19 0C22.9782 0 26.7936 1.58035 29.6066 4.3934C32.4196 7.20644 34 11.0218 34 15C34 23.2843 27.2843 30 19 30C10.705 30 4 23.25 4 15C4 6.71573 10.7157 0 19 0V0ZM19.75 7.5V15.375L26.5 19.38L25.375 21.225L17.5 16.5V7.5H19.75Z" fill="white"/>
</mask>
<g mask="url(#mask0_16040_404)">
</g>
<path d="M5.45508 39.959H6.51562V41.1016H5.45508V43H4.03125V41.1016H0.345703L0.304688 40.2344L3.98438 34.4688H5.45508V39.959ZM1.79883 39.959H4.03125V36.3965L3.92578 36.584L1.79883 39.959ZM7.83984 38.7695L8.30273 34.4688H12.8848V35.6992H9.48633L9.25195 37.7383C9.64648 37.5117 10.0918 37.3984 10.5879 37.3984C11.4004 37.3984 12.0312 37.6582 12.4805 38.1777C12.9336 38.6973 13.1602 39.3965 13.1602 40.2754C13.1602 41.1426 12.9102 41.834 12.4102 42.3496C11.9102 42.8613 11.2246 43.1172 10.3535 43.1172C9.57227 43.1172 8.92383 42.8965 8.4082 42.4551C7.89648 42.0098 7.61914 41.4238 7.57617 40.6973H8.95312C9.00781 41.1113 9.15625 41.4297 9.39844 41.6523C9.64062 41.8711 9.95703 41.9805 10.3477 41.9805C10.7852 41.9805 11.125 41.8242 11.3672 41.5117C11.6133 41.1992 11.7363 40.7734 11.7363 40.2344C11.7363 39.7148 11.6016 39.3047 11.332 39.0039C11.0625 38.6992 10.6914 38.5469 10.2188 38.5469C9.96094 38.5469 9.74219 38.582 9.5625 38.6523C9.38281 38.7188 9.1875 38.8516 8.97656 39.0508L7.83984 38.7695ZM18.6973 36.6602L18.7383 37.3223C19.1836 36.8027 19.793 36.543 20.5664 36.543C21.4141 36.543 21.9941 36.8672 22.3066 37.5156C22.7676 36.8672 23.416 36.543 24.252 36.543C24.9512 36.543 25.4707 36.7363 25.8105 37.123C26.1543 37.5098 26.3301 38.0801 26.3379 38.834V43H24.9141V38.875C24.9141 38.4727 24.8262 38.1777 24.6504 37.9902C24.4746 37.8027 24.1836 37.709 23.7773 37.709C23.4531 37.709 23.1875 37.7969 22.9805 37.9727C22.7773 38.1445 22.6348 38.3711 22.5527 38.6523L22.5586 43H21.1348V38.8281C21.1152 38.082 20.7344 37.709 19.9922 37.709C19.4219 37.709 19.0176 37.9414 18.7793 38.4062V43H17.3555V36.6602H18.6973ZM29.3145 43H27.8906V36.6602H29.3145V43ZM27.8027 35.0137C27.8027 34.7949 27.8711 34.6133 28.0078 34.4688C28.1484 34.3242 28.3477 34.252 28.6055 34.252C28.8633 34.252 29.0625 34.3242 29.2031 34.4688C29.3438 34.6133 29.4141 34.7949 29.4141 35.0137C29.4141 35.2285 29.3438 35.4082 29.2031 35.5527C29.0625 35.6934 28.8633 35.7637 28.6055 35.7637C28.3477 35.7637 28.1484 35.6934 28.0078 35.5527C27.8711 35.4082 27.8027 35.2285 27.8027 35.0137ZM32.1914 36.6602L32.2324 37.3926C32.7012 36.8262 33.3164 36.543 34.0781 36.543C35.3984 36.543 36.0703 37.2988 36.0938 38.8105V43H34.6699V38.8926C34.6699 38.4902 34.582 38.1934 34.4062 38.002C34.2344 37.8066 33.9512 37.709 33.5566 37.709C32.9824 37.709 32.5547 37.9688 32.2734 38.4883V43H30.8496V36.6602H32.1914Z" fill="#27A8A1"/>
</svg>
