<svg width="12" height="13" viewBox="0 0 12 13" fill="none" xmlns="http://www.w3.org/2000/svg">
<g clip-path="url(#clip0_16040_399)">
<path d="M11.6204 11.3612L10.8002 8.9H9.90022L10.4 11.3H1.60042L2.10022 8.9H1.20022L0.379416 11.3612C0.171216 11.9876 0.540216 12.5 1.20022 12.5H10.8002C11.4602 12.5 11.8292 11.9876 11.6204 11.3612ZM9.00022 3.5C9.00022 2.70435 8.68415 1.94129 8.12154 1.37868C7.55893 0.816071 6.79587 0.5 6.00022 0.5C5.20457 0.5 4.4415 0.816071 3.8789 1.37868C3.31629 1.94129 3.00022 2.70435 3.00022 3.5C3.00022 6.365 6.00022 9.5 6.00022 9.5C6.00022 9.5 9.00022 6.365 9.00022 3.5ZM4.38022 3.536C4.38022 2.6414 5.10502 1.9166 6.00022 1.9166C6.42979 1.9166 6.84176 2.08725 7.14552 2.391C7.44927 2.69475 7.61992 3.10673 7.61992 3.5363C7.61992 3.96587 7.44927 4.37785 7.14552 4.6816C6.84176 4.98535 6.42979 5.156 6.00022 5.156C5.57057 5.156 5.15851 4.98532 4.8547 4.68151C4.55089 4.3777 4.38022 3.96565 4.38022 3.536Z" fill="#F55951"/>
</g>
<defs>
<clipPath id="clip0_16040_399">
<rect width="12" height="12" fill="white" transform="translate(0 0.5)"/>
</clipPath>
</defs>
</svg>
